<svg width="24" height="24" viewBox="0 0 24 24" fill="none" xmlns="http://www.w3.org/2000/svg">
<path d="M11.4286 5.14282H6.28571C5.67951 5.14282 5.09812 5.38364 4.66947 5.81229C4.24082 6.24095 4 6.82233 4 7.42854V17.7143C4 18.3205 4.24082 18.9018 4.66947 19.3305C5.09812 19.7591 5.67951 20 6.28571 20H17.7143C18.3205 20 18.9019 19.7591 19.3305 19.3305C19.7592 18.9018 20 18.3205 20 17.7143V12.5714" stroke="#838798" stroke-width="2" stroke-linecap="round" stroke-linejoin="round"/>
<path d="M17.7144 6.28574L18.8035 7.4286M20.0001 3.96231C20.3048 4.27735 20.4735 4.69947 20.4698 5.13772C20.4662 5.57596 20.2905 5.99523 19.9807 6.30517L12.0001 14.2857L8.57153 15.4286L9.71439 12L17.6995 3.94745C17.9803 3.66457 18.3559 3.49584 18.7538 3.47388C19.1518 3.45193 19.5437 3.57831 19.8538 3.8286L20.0001 3.96231Z" stroke="#838798" stroke-width="2" stroke-linecap="round" stroke-linejoin="round"/>
</svg>
